<svg width="128" height="128" xmlns="http://www.w3.org/2000/svg"><path  d="M50.336 22.85c-1.471 0-2.942.712-3.54 2.137L19.911 89a3.84 3.84 0 002.052 5.029 3.835 3.835 0 005.029-2.054l5.407-12.874h35.88l5.408 12.874a3.82 3.82 0 003.539 2.354c.07 0 .139-.017.208-.02.063.004.122.019.186.019h18.893c7.513 0 13.619-6.108 13.619-13.62 0-5.372-3.152-9.985-7.677-12.204 2.559-2.472 4.162-5.932 4.162-9.765 0-7.51-6.107-13.62-13.62-13.62H77.62a2.637 2.637 0 00-2.636 2.636V75.24L53.877 24.987c-.597-1.425-2.07-2.138-3.54-2.138zM18.991 97.655c-4.372 0-4.991 1.67-4.991 3.747s.636 3.748 4.99 3.748H108.4c4.355 0 5.601-1.679 5.601-3.748s-1.23-3.747-5.601-3.747z"/></svg>