<svg aria-hidden="true" width="128" height="128" xmlns="http://www.w3.org/2000/svg">
<style>@media (prefers-color-scheme: dark) {#path404{fill:#fff}}
    </style>
<path id="path404" d="M64.255 45.77c-7.212 0-13.058 5.846-13.058 13.059v10.373c0 7.212 5.846 13.059 13.058 13.059 7.213 0 13.059-5.847 13.059-13.059V58.828c0-7.215-5.844-13.058-13.059-13.058zm7.836 23.505c0 4.32-3.515 7.835-7.836 7.835-4.32 0-7.835-3.515-7.835-7.835V58.828c0-4.321 3.515-7.835 7.835-7.835 4.321 0 7.836 3.514 7.836 7.835zM114 70.398a2.612 2.612 0 01-2.612 2.612h-2.612v6.674a2.612 2.612 0 01-5.223 0V73.01H85.271a2.616 2.616 0 01-2.208-1.215 2.615 2.615 0 01-.153-2.515l10.447-22.053a2.615 2.615 0 013.48-1.241 2.613 2.613 0 011.241 3.48l-8.68 18.32h14.155V56.181a2.612 2.612 0 015.223 0v11.605h2.612A2.614 2.614 0 01114 70.398zm-68.659 0a2.612 2.612 0 01-2.612 2.612h-2.611v6.674a2.612 2.612 0 01-5.224 0V73.01H16.612a2.616 2.616 0 01-2.208-1.216 2.615 2.615 0 01-.153-2.514l10.447-22.053a2.616 2.616 0 013.48-1.241 2.613 2.613 0 011.242 3.48l-8.682 18.32h14.156V56.18a2.612 2.612 0 015.224 0v11.606h2.611a2.614 2.614 0 012.612 2.612z"/></svg>