<svg xmlns="http://www.w3.org/2000/svg" xmlns:xlink="http://www.w3.org/1999/xlink" width="128" height="128" version="1.1" viewBox="0 0 33.867 33.867"><defs><linearGradient id="a"><stop offset="0" stop-color="#fc575e"/><stop offset="1" stop-color="#f7b42c"/></linearGradient><linearGradient xlink:href="#a" id="b" x1="43.078" x2="774.291" y1="111.56" y2="715.75" gradientTransform="translate(-11.029 35.502) scale(1.54339)" gradientUnits="userSpaceOnUse"/></defs><circle cx="16.933" cy="16.933" r="16.933" fill="#fff" fill-opacity=".951" fill-rule="evenodd" stroke-linecap="round" stroke-linejoin="round" stroke-opacity=".983" stroke-width="2" paint-order="stroke markers fill"/><g stroke-width="23.398" paint-order="stroke markers fill"><path fill="#9c2a24" d="M77.374 49.763c3.88-.44 26.588 1.577 26.481 2.097L58.572 77.448l-34.469-.982Z" transform="matrix(.24925 0 0 .24925 .981 .981)"/><path fill="url(#b)" d="M267.83 332.194c-84.193-4.441-137.743-92.535-139.59-171.042h155.33c134.049 0 157.001.529 165.408 1.731 88.985-1.066 143.267 89.144 145.815 175.135M416.12 481.196c98.948 2.03 174.07 82.23 180.256 175.329l-308.118-.623c-46.077-.727-158.063-70.57-158.683-174.35" transform="matrix(.24925 0 0 .24925 .981 .981) translate(1.89 -6.086) scale(.17143)"/></g></svg>