<svg viewBox="0 0 512 512" xmlns="http://www.w3.org/2000/svg"><path fill="currentColor" d="M216 120h272c13.3 0 24-10.7 24-24s-10.75-24-24-24H216c-13.3 0-24 10.75-24 24s10.7 24 24 24zm272 272H216c-13.3 0-24 10.7-24 24s10.75 24 24 24h272c13.25 0 24-10.75 24-24s-10.7-24-24-24zm0-160H216c-13.3 0-24 10.7-24 24s10.75 24 24 24h272c13.3 0 24-10.7 24-24s-10.7-24-24-24zM191.384 208.425L116.16 29.321c-3.344-7.975-16.469-7.975-19.813 0L21.123 208.425c-2.302 5.472.273 11.776 5.744 14.069a10.73 10.73 0 0014.07-5.745l15.129-36.022h100.388l15.13 36.022c1.71 4.124 5.695 6.587 9.904 6.587 1.386 0 2.799-.266 4.156-.84 5.471-2.295 8.068-8.608 5.74-14.07zM65.115 159.216l41.15-98.373 41.158 98.015H65.115zM153.843 356.303c10.402-10.045 16.92-24.107 16.92-39.687 0-30.523-24.822-55.358-55.358-55.358h-62.5c-5.915 0-10.714 4.8-10.714 10.715v178.571c0 5.938 4.8 10.714 10.714 10.714h76.786c30.536 0 55.357-24.821 55.357-55.357 0-21.83-12.812-40.58-31.205-49.598zM63.62 282.687h51.785c18.71 0 33.929 15.219 33.929 33.929s-15.223 33.928-33.929 33.928H63.62zM129.69 439.83H63.62v-67.857h66.071c18.71 0 33.929 15.218 33.929 33.928 0 18.71-15.224 33.929-33.929 33.929z"/></svg>