<svg width="468.136" height="495.373" viewBox="0 0 123.861 131.067" xmlns:xlink="http://www.w3.org/1999/xlink" xmlns="http://www.w3.org/2000/svg"><defs><linearGradient id="prefix__a"><stop offset="0" stop-color="#fc575e"/><stop offset="1" stop-color="#f7b42c"/></linearGradient><linearGradient xlink:href="#prefix__a" id="prefix__b" x1="43.078" y1="111.56" x2="774.291" y2="715.75" gradientUnits="userSpaceOnUse" gradientTransform="translate(128.24 161.152)"/></defs><g paint-order="stroke markers fill"><path d="M82.57 43.56c5.988-.68 41.036 2.433 40.872 3.236l-69.89 39.492L.353 84.773z" fill="#9c2a24"/><path d="M267.83 332.194c-84.193-4.441-137.743-92.535-139.59-171.042h155.33c134.049 0 157.001.529 165.408 1.731 88.985-1.066 143.267 89.144 145.815 175.135M416.12 481.196c98.948 2.03 174.07 82.23 180.256 175.329l-308.118-.623c-46.077-.727-158.063-70.57-158.683-174.35" transform="matrix(.26458 0 0 .26458 -33.93 -42.638)" fill="url(#prefix__b)"/></g></svg>