<svg xmlns="http://www.w3.org/2000/svg" width="300mm" height="300mm" viewBox="0 0 300 300"><path d="M113.084 253.587c-.747-.511-.878-1.52-.304-2.339.477-.68.955-.808 3.03-.808 1.354 0 2.462-.139 2.462-.308 0-.357 5.678-26.698 5.967-27.68l-79.552-.873c-5.483-.865-9.136-4.822-9.557-9.94l.199-154.812c-.133-10.733.115-10.74 9.358-10.707h210.626c9.338.062 9.4.04 9.358 10.707.598 55.917.287 91.503.199 154.813-1.44 8.69-6.524 8.989-10.755 9.758l-78.586.372 6.07 27.602c.207.981.346 1.04 2.709 1.146 2.01.09 2.59.263 3.008.895.441.666.43.907-.072 1.624l-.59.843-73.57-.294z"/><path d="M49.526 127.839l-.003-2.94c1.004-.031 2.115-.294 3.081-.08.092.09.14 1.926.108 4.082l-.059 3.921c-3.066-.174-3.14-2.684-3.127-4.983z" fill="#ff851b" paint-order="stroke markers fill"/><path d="M52.544 121.87c-.935-.55-1.808-.62-2.913-.845l-.119-6.98c.947.317 2.566-.542 3.15-.163z" fill="#b10dc9" paint-order="stroke markers fill"/><path d="M49.523 110.376v-6.85c1.212-.166 2.154-.246 3.238-.541l-.162 8.02c-.99-.45-2.124-.618-3.076-.63z" fill="#2ecc40" paint-order="stroke markers fill"/><path d="M52.221 100.012c-.921-.303-1.686-.215-2.698-.215v-7.072c.898-.107 1.803-.174 2.698-.31z" fill="#ffdc00" paint-order="stroke markers fill"/><path d="M49.523 89.002v-6.9c1.05-.156 2.168-.56 3.063-.523.22.136.233 7.86.013 7.84-1-.391-2.175-.405-3.076-.417z" fill="#39cccc" paint-order="stroke markers fill"/><path d="M49.523 78.423c.038-1.436-.239-7.064.821-7.125 2.417-1.02 1.567-.59 2.417-1.02l-.095 8.577z" fill="#0074d9" paint-order="stroke markers fill"/><path d="M49.523 63.08V60.07h3.238c-.158 2.71.224 5.489-.054 8.184-3.467-1.541-3.178-2.203-3.184-5.175z" fill="#ff4136" paint-order="stroke markers fill"/><path d="M52.479 143.246c-1.01-.403-1.808-.27-2.956-.27v-3.008c.151-4.029-.132-4.036 3.174-4.9l-.218 8.178z" fill="#fff" paint-order="stroke markers fill"/><path d="M39.516 56.444s-.508-6.843 5.492-6.563c6 .28 104.572 0 104.572 0 103.403 0 99.148-.594 104.9-.194 6.251.031 6.132.104 6.266 5.65v130.305H39.241zm214.156 121.445c.644-1.015-.09-120.386-.09-120.386H46.405s-.74 119.36-.11 120.35zM43.753 216.764c-6.115-4.007-6.286-4.235 1.563-2.122 6.362.108 104.678-.164 104.678-.164s98.956.149 104.924 0c3.987-.098 6.707-3.047 3.981.235-4.873 4.205 6.064 3.085-108.752 3.06-102.32-.022-99.697 1.37-106.394-1.009zM128.243 221.879h43.501a7777.273 7777.273 0 006.21 28.07h-55.92c2.217-9.901 4.05-18.26 6.209-28.07z" fill="#ddd" paint-order="stroke markers fill"/><path d="M44.09 209.847c-4.31-2.249-4.849-3.657-4.849-12.696v-7.426h221.505l-.026 16.883c-.305 4.036-.208 4.186-5.739 4.043l-104.68-.004c-93.93-.002-104.837-.085-106.21-.8z" fill="#aaa" paint-order="stroke markers fill"/><ellipse cx="150" cy="200.238" rx="3.686" ry="3.613" paint-order="stroke markers fill"/><path d="M76.46 37.733c.014-7.775.822-10.22 4.625-14.023 5.876-5.876 16.494-5.358 21.527 1.05 3.437 4.376 3.862 5.78 3.88 12.814l.016 6.547-15.03.16-15.03.158zM215.596 116.89c.148-13.158.087-14.138-.888-14.138-1.148 0-27.546 26.046-27.546 27.178 0 .385.335.837.744 1.006.41.168 6.771.257 14.137.198l13.393-.108z" fill="#fff" stroke="#000" stroke-width="3.9"/><path d="M110.659 141.89s.297-110.142-1.867-114.243c-.707-1.53-2.42-4.014-3.808-5.52L94.26 19.49l105.7.226 2.832 1.308c3.316 1.532 6.074 4.284 7.635 7.62 1.039 2.223 1.114 4.306 1.126 31.253l.014 28.872-53.874 53.865-47.035-.744z" fill="#fff" stroke="#000" stroke-width="3.9"/><path d="M163.353 142.287c0-.545 62.135-63.344 62.675-63.344.265 0 .402 1.406.303 3.125-.168 2.915-.29 3.138-1.817 3.313-1.272.147-1.637.503-1.637 1.598 0 1.094.365 1.45 1.637 1.597 1.542.177 1.637.36 1.637 3.165 0 2.804-.095 2.987-1.637 3.164-1.272.147-1.637.503-1.637 1.597 0 1.095.365 1.452 1.637 1.598 1.542.177 1.637.36 1.637 3.164 0 2.805-.095 2.987-1.637 3.165-1.286.148-1.637.5-1.637 1.637 0 1.213.29 1.448 1.786 1.448 1.743 0 1.785.071 1.785 2.937 0 2.761-.097 2.948-1.636 3.125-1.286.148-1.678.54-1.826 1.825-.17 1.471-.003 1.637 1.637 1.637 1.79 0 1.825.057 1.825 2.937 0 2.761-.097 2.948-1.636 3.125-1.286.148-1.678.54-1.826 1.825-.17 1.471-.003 1.637 1.637 1.637 1.794 0 1.825.052 1.825 2.976 0 2.91-.04 2.977-1.785 2.977-1.588 0-1.786.198-1.786 1.785 0 1.588.198 1.786 1.786 1.786 1.767 0 1.785.034 1.785 3.274v3.274h-31.547c-17.352 0-31.548-.156-31.548-.347z" stroke="#fff" stroke-width="1.9"/><path d="M206.61 47.765c.901-.048.835-2.74.042-2.74l-26.645.006c-1.091 0-1.041 2.73-.207 2.81z" fill="#39cccc" paint-order="stroke markers fill"/><path d="M135.492 72.223c2.28.173 2.663-3.191.152-3.188l-15.108-.12c-1.949-.015-2.021 3.343-.22 3.414z" fill="#ff4136" paint-order="stroke markers fill"/><path d="M150.277 128.997c-7.25-2.051-12.093-8.475-13.116-15.171l-17.696-.285.007-29.34c.073.24 29.385.087 29.385.087l.366 12.676c14.875-.31 20.719 7.143 19.758 19.746-2.217 10.453-12.144 14.104-18.705 12.287zm8.867-3.78c3.474-1.73 6.129-5.108 6.97-8.868 1.795-8.02-2.17-16.928-16.67-17.227 0 0-.243 8.877-.484 14.567l-8.784.215c-.037 2.828.477 3.124 1.03 4.368 3.246 7.305 11.108 10.349 17.938 6.945zm-13.08-38.12l-23.562-.144.256 23.314 23.306-.005z" fill="#ea0000" paint-order="stroke markers fill"/><path d="M175.561 47.923c1.041.152 1.227-2.722-.073-2.802l-35.79.007c-1.066.1-1.049 2.788-.18 2.869z" fill="#ff851b" paint-order="stroke markers fill"/><path d="M191.666 55.263c2.469-.006 2.657-3.121-.114-3.187l-63.03-.21c-1.961-.043-2.016 3.457.333 3.547z" fill="#ffdc00" paint-order="stroke markers fill"/><path d="M197.162 40.28c1.927.292 1.978-3.013.086-3.085l-42.686-.058c-2.025-.236-2.002 3.267-.062 3.25z" fill="#2ecc40" paint-order="stroke markers fill"/><path d="M149.213 40.237c2.153.003 1.992-3.407.18-3.411l-20.47.145c-2.455-.091-2.365 3.009.005 3.242z" fill="#0074d9" paint-order="stroke markers fill"/><path d="M135.738 32.071c1.994.142 1.954-3.435-.123-3.451l-16.518.153c-2.15-.054-2.042 3.606-.041 3.587z" fill="#ff4136" paint-order="stroke markers fill"/><path d="M145.986 63.455c1.342-.144.944-3.465-.15-3.47l-16.685-.059c-1.59-.005-1.419 3.292-.325 3.448z" fill="#b10dc9" paint-order="stroke markers fill"/><path d="M188.132 130.9l27.515-27.176-.21 27.302z" fill="#fff" paint-order="stroke markers fill"/></svg>