<svg xmlns="http://www.w3.org/2000/svg" width="128" height="128" version="1.1"><path  d="M63.98 27.685c-11.2 0-19.45 1.43-28.666 4.974-4.726 1.82-4.948 2.305-4.368 9.538.783 9.734 3.79 21.804 5.788 23.204h.006c1.294.906 1.359.895 5.762-1.055l3.887-1.719.247-4.466c.164-2.95.534-5.16 1.088-6.504 5.8-13.987 24.36-15.6 32.377-2.819a165.87 165.87 0 0 0 1.536 2.415c.067.094 2.902-.286 6.302-.846 8.414-1.387 8.515-1.474 9.115-8.288.61-6.893.258-7.667-4.35-9.434-9.273-3.57-17.497-5-28.724-5zm25.782 31.108c-1.212.054-2.792.318-4.78.755-2.195.483-2.222.51-2.48 2.37-.616 4.503-4.08 9.553-8.47 12.35-6.523 4.147-15.674 3.25-21.484-2.103l-1.947-1.79-3.19 1.393c-1.753.767-3.526 1.681-3.94 2.031-1.226 1.034-1.4 3.21-.41 5.144 2.298 4.507 10.82 14.17 16.92 19.18 3.835 3.15 4.28 3.086 9.514-1.38 9.813-8.38 18.129-20.139 22.552-31.883 1.703-4.517 1.35-6.23-2.285-6.067z"/><path id="prefix__path186" d="M64.005 14c-4.992 0-9.984.257-13.262.768-9.64 1.5-18.933 4.257-27.123 8.04-5.084 2.35-5.615 3.542-5.632 12.586-.033 20.197 6.158 38.675 18.568 55.385 5.694 7.667 17.217 18.304 24.057 22.214 3.57 2.043 5.931 1.22 13.555-4.733 16.362-12.774 28.101-30.598 33.021-50.138 1.837-7.303 2.46-11.792 2.715-19.636.294-9.007.046-11.2-1.47-13.008-2.835-3.36-18.461-8.73-31.174-10.71-3.276-.51-8.264-.768-13.255-.768Zm.215 6.185c12.843.02 22.323 1.856 34.447 6.686 5.127 2.04 5.287 2.25 5.28 6.797-.03 20.474-7.486 41.401-20.326 57.078-4.633 5.654-12.121 12.67-17.188 16.108-.926.63-2.018 1.145-2.428 1.145-2.337 0-13.634-9.92-19.584-17.2-12.93-15.824-20.368-36.67-20.371-57.105 0-4.456.524-5.062 6.204-7.246 11.754-4.52 21.305-6.28 33.966-6.263z"/></svg>