<svg version="1.0" xmlns="http://www.w3.org/2000/svg" width="141.333" height="141.333" viewBox="0 0 106 106"><path d="M35 1.5c-9.1 2-22.1 6.3-25.9 8.6-4.3 2.6-4.9 4.8-4.6 16.6.8 25.7 13 51.2 32.8 68.7 8.2 7.2 13.1 10.6 15.5 10.6 4.9 0 20.6-13.4 29.6-25.4 12.6-16.7 18.8-35 19-55.9.1-10.6 0-10.9-2.6-13.2C95.7 8.8 87.9 5.7 77 2.8 67.2.2 44.4-.5 35 1.5zm36 6.6c7.5 1.4 22.7 6.6 23.7 8.2 1.1 1.8.5 14.1-1.1 22.2-2.3 11.6-8 25.8-14.1 35-4.6 7-18.5 21.4-23.4 24.4l-3.4 2-3.1-2.2C40 91.1 28.7 77.9 22.2 66c-3.6-6.6-8.7-20.7-9.7-27-.4-2.5-.9-5.2-1-6.1-.4-2-.7-10.2-.6-14.2.1-2.3.9-3.1 4.9-4.8 15.7-6.8 36.9-9 55.2-5.8z"/><path d="M44.7 13.6c-.1.1-2.4.4-5.2.8-5.8.7-14.8 3.2-18.9 5.3-2.9 1.5-2.9 1.5-2.3 9.1.6 9.1 3.3 21.2 5.1 23.8 1.3 1.7 1.5 1.7 6 0 2.5-1 4.6-2.2 4.6-2.7s.1-1.1.1-1.4c.1-.2.6-2.8 1-5.6C36.9 31.3 48.6 24 59.6 27.7 63.4 29 71 35.2 71 37.1c0 2.5 14.5-.3 16-3.1.5-1 1-4.1 1.1-7 .2-4.2-.2-5.6-1.7-6.7-2.3-1.7-13.6-5.2-18.9-5.9-4.2-.6-22.3-1.2-22.8-.8zM76.5 46.9c-2.3.5-3.3 1.5-4.5 4.7-5 13.2-19.1 17.9-29.7 9.8-3.1-2.3-3.6-2.4-6.9-1.2-5 1.8-5.9 3.9-3.7 8.6 2.5 5.3 18.2 21.2 21 21.2 2.9 0 14.1-10.5 19.9-18.6C79.4 61.9 85.8 47 83.1 47c-.5 0-1.5-.2-2.3-.4-.7-.2-2.6-.1-4.3.3z"/></svg>