<?xml version="1.0" standalone="no"?>
<!DOCTYPE svg PUBLIC "-//W3C//DTD SVG 20010904//EN"
 "http://www.w3.org/TR/2001/REC-SVG-20010904/DTD/svg10.dtd">
<svg version="1.0" xmlns="http://www.w3.org/2000/svg"
 width="106.000000pt" height="106.000000pt" viewBox="0 0 106.000000 106.000000"
 preserveAspectRatio="xMidYMid meet">
<metadata>
Created by potrace 1.11, written by Peter Selinger 2001-2013
</metadata>
<g transform="translate(0.000000,106.000000) scale(0.100000,-0.100000)"
fill="#000000" stroke="none">
<path d="M350 1045 c-91 -20 -221 -63 -259 -86 -43 -26 -49 -48 -46 -166 8
-257 130 -512 328 -687 82 -72 131 -106 155 -106 49 0 206 134 296 254 126
167 188 350 190 559 1 106 0 109 -26 132 -31 27 -109 58 -218 87 -98 26 -326
33 -420 13z m360 -66 c75 -14 227 -66 237 -82 11 -18 5 -141 -11 -222 -23
-116 -80 -258 -141 -350 -46 -70 -185 -214 -234 -244 l-34 -20 -31 22 c-96 66
-209 198 -274 317 -36 66 -87 207 -97 270 -4 25 -9 52 -10 61 -4 20 -7 102 -6
142 1 23 9 31 49 48 157 68 369 90 552 58z"/>
<path d="M447 924 c-1 -1 -24 -4 -52 -8 -58 -7 -148 -32 -189 -53 -29 -15 -29
-15 -23 -91 6 -91 33 -212 51 -238 13 -17 15 -17 60 0 25 10 46 22 46 27 0 5
1 11 1 14 1 2 6 28 10 56 18 116 135 189 245 152 38 -13 114 -75 114 -94 0
-25 145 3 160 31 5 10 10 41 11 70 2 42 -2 56 -17 67 -23 17 -136 52 -189 59
-42 6 -223 12 -228 8z"/>
<path d="M765 591 c-23 -5 -33 -15 -45 -47 -50 -132 -191 -179 -297 -98 -31
23 -36 24 -69 12 -50 -18 -59 -39 -37 -86 25 -53 182 -212 210 -212 29 0 141
105 199 186 68 95 132 244 105 244 -5 0 -15 2 -23 4 -7 2 -26 1 -43 -3z"/>
</g>
</svg>
