<?xml version="1.0" encoding="UTF-8" standalone="no"?>
<svg
   id="eQxukRF4Xbv1"
   viewBox="0 0 106 106"
   shape-rendering="geometricPrecision"
   text-rendering="geometricPrecision"
   version="1.1"
   sodipodi:docname="icon_.svg"
   inkscape:version="1.1 (c4e8f9e, 2021-05-24)"
   xmlns:inkscape="http://www.inkscape.org/namespaces/inkscape"
   xmlns:sodipodi="http://sodipodi.sourceforge.net/DTD/sodipodi-0.dtd"
   xmlns="http://www.w3.org/2000/svg"
   xmlns:svg="http://www.w3.org/2000/svg">
  <defs
     id="defs829" />
  <sodipodi:namedview
     id="namedview827"
     pagecolor="#ffffff"
     bordercolor="#666666"
     borderopacity="1.0"
     inkscape:pageshadow="2"
     inkscape:pageopacity="0.0"
     inkscape:pagecheckerboard="0"
     showgrid="false"
     inkscape:zoom="5.7438122"
     inkscape:cx="24.199955"
     inkscape:cy="39.08554"
     inkscape:window-width="1792"
     inkscape:window-height="993"
     inkscape:window-x="0"
     inkscape:window-y="25"
     inkscape:window-maximized="1"
     inkscape:current-layer="eQxukRF4Xbv1" />
  <path
     d="M35,1.5c-9.1,2-22.1,6.3-25.9,8.6-4.3,2.6-4.9,4.8-4.6,16.6.8,25.7,13,51.2,32.8,68.7c8.2,7.2,13.1,10.6,15.5,10.6c4.9,0,20.6-13.4,29.6-25.4c12.6-16.7,18.8-35,19-55.9.1-10.6,0-10.9-2.6-13.2C95.7,8.8,87.9,5.7,77,2.8c-9.8-2.6-32.6-3.3-42-1.3ZM71,8.1c7.5,1.4,22.7,6.6,23.7,8.2c1.1,1.8.5,14.1-1.1,22.2-2.3,11.6-8,25.8-14.1,35-4.6,7-18.5,21.4-23.4,24.4l-3.4,2-3.1-2.2C40,91.1,28.7,77.9,22.2,66c-3.6-6.6-8.7-20.7-9.7-27-.4-2.5-.9-5.2-1-6.1-.4-2-.7-10.2-.6-14.2.1-2.3.9-3.1,4.9-4.8C31.5,7.1,52.7,4.9,71,8.1Z"
     id="path824" />
</svg>
