<svg xmlns="http://www.w3.org/2000/svg" version="1.1" viewBox="0 0 24 24"><path fill="#fff" fill-opacity="1" stroke="#030303" stroke-opacity="1" stroke-width="1" d="M21.407 9.597c-.612-3.214-3.847-3.614-3.847-3.614H3.072c-.478 0-.537.628-.537.628s-.065 5.764-.018 9.303c.13 1.908 2.048 2.103 2.048 2.103s6.545-.018 9.474-.038c1.93-.336 2.124-2.02 2.104-2.939 3.446.189 5.876-2.228 5.264-5.443zM12.65 12.36c-.986 1.144-3.175 3.13-3.175 3.13s-.096.093-.246.017c-.06-.044-.085-.07-.085-.07-.351-.347-2.667-2.4-3.194-3.112-.562-.76-.824-2.125-.072-2.92.753-.794 2.379-.854 3.454.32 0 0 1.24-1.402 2.746-.757 1.507.645 1.45 2.37.572 3.392zm4.887.377c-.734.09-1.331.022-1.331.022V8.288h1.401s1.56.433 1.56 2.076c0 1.505-.78 2.099-1.63 2.373z"/><path fill="#ff2858" fill-opacity="1" fill-rule="evenodd" stroke="none" stroke-linecap="round" stroke-linejoin="round" stroke-opacity="1" stroke-width="7.559" d="M8.158 14.456c-2.353-2.2-2.67-2.643-2.675-3.737-.002-.653.098-.92.49-1.31.405-.402.655-.49 1.398-.49.752.001 1.1.129 1.645.605l.28.245.432-.324c.537-.403.996-.568 1.578-.565.862.003 1.598.542 1.832 1.34.153.523.105.93-.179 1.54-.158.34-.527.763-1.628 1.866-.783.785-1.559 1.535-1.724 1.666l-.3.239Z" paint-order="stroke markers fill"/></svg>