<?xml version="1.0" encoding="UTF-8" standalone="no"?>
<svg
   aria-hidden="true"
   version="1.1"
   id="svg826"
   sodipodi:docname="404.svg"
   inkscape:version="1.1 (c4e8f9e, 2021-05-24)"
   xmlns:inkscape="http://www.inkscape.org/namespaces/inkscape"
   xmlns:sodipodi="http://sodipodi.sourceforge.net/DTD/sodipodi-0.dtd"
   xmlns="http://www.w3.org/2000/svg"
   xmlns:svg="http://www.w3.org/2000/svg">
  <defs
     id="defs830" />
  <sodipodi:namedview
     id="namedview828"
     pagecolor="#ffffff"
     bordercolor="#666666"
     borderopacity="1.0"
     inkscape:pageshadow="2"
     inkscape:pageopacity="0.0"
     inkscape:pagecheckerboard="0"
     showgrid="false"
     inkscape:zoom="1.5902424"
     inkscape:cx="164.12592"
     inkscape:cy="34.900339"
     inkscape:window-width="1792"
     inkscape:window-height="993"
     inkscape:window-x="0"
     inkscape:window-y="25"
     inkscape:window-maximized="1"
     inkscape:current-layer="svg826" />
  <path
     d="m 150.71658,23.769723 c -20.25158,0 -36.66689,16.415309 -36.66689,36.666891 v 29.127262 c 0,20.251584 16.41531,36.666894 36.66689,36.666894 20.25158,0 36.6669,-16.41531 36.6669,-36.666894 V 60.434322 c 0,-20.258457 -16.40844,-36.664599 -36.6669,-36.664599 z m 22.00013,65.998112 c 0,12.129865 -9.86797,22.000135 -22.00013,22.000135 -12.12986,0 -22.00013,-9.87027 -22.00013,-22.000135 V 60.434322 c 0,-12.132157 9.87027,-22.000134 22.00013,-22.000134 12.13216,0 22.00013,9.867977 22.00013,22.000134 z m 117.67643,3.15381 c 0,4.0494 -3.28398,7.333385 -7.33337,7.333385 h -7.33338 v 18.74136 c 0,4.0494 -3.28398,7.33338 -7.33338,7.33338 -4.0494,0 -7.33339,-3.28398 -7.33339,-7.33338 v -18.74136 h -51.33364 a 7.3439199,7.3439199 0 0 1 -6.19899,-3.412319 7.3420865,7.3420865 0 0 1 -0.42969,-7.060668 l 29.33351,-61.921212 c 1.72449,-3.659814 6.12452,-5.211281 9.76829,-3.485646 3.65981,1.732969 5.22045,6.109621 3.48793,9.769435 l -24.37431,51.443648 h 39.7469 v -32.5877 c 0,-4.049399 3.28399,-7.333378 7.33339,-7.333378 4.0494,0 7.33338,3.283979 7.33338,7.333378 v 32.5877 h 7.33338 c 4.05627,0 7.33337,3.30002 7.33337,7.333377 z M 97.607795,92.921188 c 0,4.049399 -3.283976,7.333382 -7.333376,7.333382 h -7.33338 v 18.74136 c 0,4.0494 -3.283978,7.33338 -7.333378,7.33338 -4.0494,0 -7.333378,-3.28398 -7.333378,-7.33338 V 100.25457 H 16.940636 A 7.3439199,7.3439199 0 0 1 10.74164,96.842253 7.3420865,7.3420865 0 0 1 10.31195,89.781585 L 39.645463,27.860373 c 1.724488,-3.659814 6.124515,-5.211282 9.768288,-3.485646 3.659815,1.732969 5.220449,6.10962 3.487939,9.769435 L 28.527373,85.587809 h 39.74691 V 53.000111 c 0,-4.0494 3.283978,-7.333379 7.333378,-7.333379 4.0494,0 7.333378,3.283979 7.333378,7.333379 v 32.587698 h 7.33338 c 4.056272,0 7.333376,3.30002 7.333376,7.333379 z"
     id="path824"
     style="stroke-width:1" />
</svg>
