<svg aria-hidden="true" xmlns="http://www.w3.org/2000/svg"><path d="M150.717 23.77c-20.252 0-36.667 16.415-36.667 36.667v29.127c0 20.251 16.415 36.667 36.667 36.667 20.251 0 36.666-16.416 36.666-36.667v-29.13c0-20.258-16.408-36.664-36.666-36.664zm22 65.998c0 12.13-9.868 22-22 22-12.13 0-22-9.87-22-22V60.434c0-12.132 9.87-22 22-22 12.132 0 22 9.868 22 22zm117.676 3.154a7.334 7.334 0 01-7.333 7.333h-7.334v18.741a7.334 7.334 0 01-14.666 0v-18.741h-51.334a7.344 7.344 0 01-6.199-3.412 7.342 7.342 0 01-.43-7.061l29.334-61.921c1.724-3.66 6.124-5.211 9.768-3.486a7.338 7.338 0 013.488 9.77l-24.374 51.443h39.747V53.001a7.334 7.334 0 0114.666 0v32.587h7.334c4.056 0 7.333 3.3 7.333 7.334zm-192.785 0a7.334 7.334 0 01-7.334 7.333h-7.333v18.74a7.334 7.334 0 01-14.667 0v-18.74H16.941a7.344 7.344 0 01-6.2-3.413 7.342 7.342 0 01-.43-7.06L39.646 27.86c1.725-3.66 6.125-5.21 9.769-3.485a7.338 7.338 0 013.488 9.77L28.527 85.587h39.747V53a7.334 7.334 0 0114.667 0v32.588h7.333c4.057 0 7.334 3.3 7.334 7.333z"/></svg>