<svg width="483.78" height="483.78" viewBox="0 0 128 128" xmlns:xlink="http://www.w3.org/1999/xlink" xmlns="http://www.w3.org/2000/svg"><defs><linearGradient id="prefix__a"><stop offset="0" stop-color="#fc575e"/><stop offset="1" stop-color="#f7b42c"/></linearGradient><linearGradient xlink:href="#prefix__a" id="prefix__b" x1="43.078" y1="111.56" x2="774.291" y2="715.75" gradientUnits="userSpaceOnUse" gradientTransform="translate(-11.029 35.502) scale(1.54339)"/></defs><circle cx="64" cy="64" r="64" fill="#fffeff" paint-order="stroke markers fill"/><g paint-order="stroke markers fill" stroke-width="1.543"><path d="M77.374 49.763c3.88-.44 26.588 1.577 26.481 2.097L58.572 77.448l-34.469-.982z" fill="#9c2a24"/><path d="M267.83 332.194c-84.193-4.441-137.743-92.535-139.59-171.042h155.33c134.049 0 157.001.529 165.408 1.731 88.985-1.066 143.267 89.144 145.815 175.135M416.12 481.196c98.948 2.03 174.07 82.23 180.256 175.329l-308.118-.623c-46.077-.727-158.063-70.57-158.683-174.35" transform="matrix(.17143 0 0 .17143 1.89 -6.086)" fill="url(#prefix__b)"/></g></svg>