<svg fill="#22C55E" width="128" height="128" xmlns="http://www.w3.org/2000/svg"><path d="M104.625 67.125h-43.75v-43.75c0-5.156-4.219-9.375-9.375-9.375H23.375C18.219 14 14 18.219 14 23.375v81.25c0 5.156 4.219 9.375 9.375 9.375h81.25c5.156 0 9.375-4.219 9.375-9.375V76.5c0-5.156-4.219-9.375-9.375-9.375zm-3.568 37.5H26.158c-2.758-.237-2.783-.235-2.783-3.16V27.18c.136-3.817-.293-3.805 3.703-3.805h21.254c3.256.106 3.168.005 3.168 2.579v5.808c.02.556-.196.812-.728.812H35.875c-4.447.492-3.296 6.15 0 6.25l14.88.168c.45.003.7.148.745.661v11.048c.052.523-.249.781-.745.799h-14.88c-4.442.492-3.297 6.149 0 6.25h14.773c.53.033.838.186.852.701V69.5c-.013.573-.295.751-.852.751H35.875c-4.442.492-3.297 6.149 0 6.25h14.844c.562-.004.781.255.781.767v14.858c.492 4.442 6.149 3.297 6.25 0V77.231c-.012-.617.265-.713.79-.731h10.8c.716.016.91.308.91.927v14.698c.491 4.447 6.15 3.296 6.25 0V77.409c.004-.732.216-.909.891-.909h10.73c.778.046.879.522.879 1.175v14.45c.491 4.447 6.15 3.296 6.25 0V77.888c-.01-.987.267-1.388 1.453-1.388h5.376c1.816-.048 2.51.929 2.546 2.486v22.582c-.194 2.912-.327 3.057-3.568 3.057z"/></svg>